<svg width="1213" height="225" viewBox="0 0 1213 225" fill="none" xmlns="http://www.w3.org/2000/svg">
<path d="M336.395 162.064H307.293V66.4135H334.455L335.425 73.7712H335.813C340.469 70.9314 345.19 68.8015 349.976 67.3816C354.891 65.8326 359.483 65.0581 363.751 65.0581H365.303V93.1337C364.139 92.8756 362.845 92.7465 361.423 92.7465C360.129 92.6174 358.448 92.5528 356.378 92.5528C352.627 92.5528 349.071 92.811 345.708 93.3273C342.345 93.7146 339.241 94.36 336.395 95.2636V162.064Z" fill="#084040"/>
<path d="M392.628 164C382.798 164 375.555 161.548 370.899 156.643C366.372 151.738 364.108 143.993 364.108 133.408C364.108 122.565 366.825 114.949 372.257 110.56C377.819 106.171 387.325 103.977 400.777 103.977C403.881 103.977 407.05 104.17 410.283 104.558C413.646 104.816 416.556 105.203 419.014 105.719V98.7488C419.014 95.6508 417.656 93.3919 414.939 91.972C412.353 90.423 408.343 89.6485 402.911 89.6485C396.702 89.6485 391.141 89.8421 386.226 90.2293C381.44 90.4875 377.043 91.0038 373.033 91.7784V67.9625C377.819 66.8007 383.38 65.9617 389.718 65.4453C396.056 64.7999 403.428 64.4772 411.835 64.4772C423.735 64.4772 432.724 67.1234 438.803 72.4158C445.011 77.7083 448.115 85.5178 448.115 95.8445V162.064H420.954L419.984 153.932H419.402C415.392 157.03 410.995 159.483 406.209 161.29C401.423 163.097 396.896 164 392.628 164ZM404.657 123.146C399.483 123.146 395.991 123.726 394.18 124.888C392.369 125.921 391.464 128.18 391.464 131.665C391.464 134.892 392.175 137.151 393.598 138.442C395.15 139.604 397.802 140.185 401.553 140.185C404.398 140.185 407.373 139.797 410.477 139.023C413.581 138.248 416.427 137.28 419.014 136.118V124.307C417.462 123.92 415.521 123.662 413.193 123.533C410.865 123.275 408.02 123.146 404.657 123.146Z" fill="#084040"/>
<path d="M465.649 90.6166H454.397V66.4135H466.619L470.305 44.1466H494.751V66.4135H521.912V90.6166H494.751V127.793C494.751 131.407 495.656 133.86 497.467 135.15C499.407 136.312 503.158 136.893 508.72 136.893C510.66 136.893 513.053 136.764 515.898 136.506C518.744 136.118 521.136 135.731 523.077 135.344V160.128C521.007 161.032 517.774 161.871 513.376 162.645C509.108 163.549 505.292 164 501.929 164C488.995 164 479.683 161.29 473.992 155.868C468.43 150.318 465.649 141.346 465.649 128.954V90.6166Z" fill="#084040"/>
<path d="M607.855 133.795V156.836C604.751 158.773 599.512 160.451 592.14 161.871C584.768 163.291 577.007 164 568.859 164C553.338 164 542.15 160.128 535.295 152.383C528.44 144.509 525.012 131.794 525.012 114.239C525.012 97.0708 528.634 84.4851 535.877 76.482C543.12 68.4788 554.567 64.4772 570.217 64.4772C585.479 64.4772 596.214 67.5107 602.423 73.5776C608.76 79.5154 611.929 90.1003 611.929 105.332C611.929 109.463 611.865 112.754 611.735 115.207C611.606 117.66 611.347 120.499 610.959 123.726H554.308C554.437 129.019 555.86 132.698 558.576 134.763C561.292 136.828 566.272 137.861 573.515 137.861C579.723 137.861 586.061 137.474 592.528 136.699C598.995 135.796 604.104 134.828 607.855 133.795ZM570.217 89.2612C564.008 89.2612 559.805 90.3584 557.606 92.5528C555.407 94.6182 554.308 98.7488 554.308 104.945H585.544V100.685C585.414 96.1672 584.315 93.1337 582.245 91.5847C580.305 90.0357 576.296 89.2612 570.217 89.2612Z" fill="#084040"/>
<path d="M685.355 89.0676C679.923 89.0676 676.236 89.5194 674.296 90.423C672.486 91.1975 671.58 93.0692 671.58 96.0381C671.58 97.1998 671.903 98.168 672.55 98.9425C673.326 99.5879 674.361 99.9751 675.654 100.104L698.742 103.202C706.243 104.235 711.482 106.687 714.457 110.56C717.561 114.303 719.113 120.306 719.113 128.567C719.113 140.959 716.332 149.995 710.77 155.675C705.209 161.225 695.508 164 681.669 164C674.038 164 667.118 163.678 660.909 163.032C654.83 162.516 649.657 161.742 645.389 160.709V135.538C648.622 136.312 653.084 137.022 658.775 137.667C664.596 138.184 670.481 138.442 676.43 138.442C681.733 138.442 685.29 137.926 687.101 136.893C689.041 135.731 690.011 133.601 690.011 130.503C690.011 129.471 689.688 128.632 689.041 127.986C688.394 127.212 687.554 126.76 686.519 126.631L662.656 123.533C655.671 122.629 650.562 120.112 647.329 115.981C644.225 111.722 642.672 105.461 642.672 97.1999C642.672 86.3568 646.1 78.2246 652.955 72.8031C659.81 67.2525 669.963 64.4772 683.415 64.4772C688.718 64.4772 693.633 64.6063 698.16 64.8645C702.687 65.1226 707.472 65.639 712.517 66.4135V90.6166C709.283 90.1003 705.273 89.713 700.488 89.4548C695.702 89.1967 690.658 89.0676 685.355 89.0676Z" fill="#084040"/>
<path d="M757.029 162.064H727.927V33.3036H757.029V73.1903C761.814 70.4796 766.729 68.3497 771.773 66.8007C776.947 65.2517 781.862 64.4772 786.518 64.4772C797.383 64.4772 805.467 67.0589 810.77 72.2222C816.202 77.3856 818.918 85.2596 818.918 95.8445V162.064H789.816V99.717C789.816 96.4899 788.846 94.1664 786.906 92.7465C784.966 91.3266 781.862 90.6166 777.594 90.6166C774.36 90.6166 770.933 90.9393 767.311 91.5847C763.69 92.1011 760.262 92.811 757.029 93.7146V162.064Z" fill="#084040"/>
<path d="M922.469 114.239C922.469 132.181 918.847 144.961 911.604 152.577C904.361 160.193 892.203 164 875.13 164C858.057 164 845.899 160.193 838.656 152.577C831.413 144.961 827.791 132.181 827.791 114.239C827.791 96.2963 831.413 83.517 838.656 75.9011C845.899 68.2852 858.057 64.4772 875.13 64.4772C892.203 64.4772 904.361 68.2852 911.604 75.9011C918.847 83.517 922.469 96.2963 922.469 114.239ZM856.893 113.852C856.893 123.662 857.928 129.987 859.997 132.827C862.196 135.667 867.24 137.087 875.13 137.087C883.02 137.087 887.999 135.667 890.069 132.827C892.268 129.987 893.367 123.662 893.367 113.852C893.367 104.041 892.268 97.7162 890.069 94.8764C887.999 92.0365 883.02 90.6166 875.13 90.6166C867.24 90.6166 862.196 92.0365 859.997 94.8764C857.928 97.7162 856.893 104.041 856.893 113.852Z" fill="#084040"/>
<path d="M960.9 191.495H931.798V66.4135H957.407L958.959 75.3202H959.347C962.84 71.7059 966.979 68.9951 971.764 67.188C976.679 65.3808 982.241 64.4772 988.449 64.4772C1001.12 64.4772 1010.11 68.2852 1015.42 75.9011C1020.85 83.517 1023.57 96.2963 1023.57 114.239C1023.57 131.665 1020.14 144.315 1013.28 152.189C1006.56 160.063 995.563 164 980.301 164C976.55 164 972.993 163.742 969.63 163.226C966.397 162.839 963.486 162.258 960.9 161.483V191.495ZM994.464 114.239C994.464 104.558 993.429 98.2325 991.359 95.2636C989.29 92.1656 984.828 90.6166 977.973 90.6166C974.61 90.6166 971.441 90.8748 968.466 91.3911C965.62 91.9074 963.098 92.6819 960.9 93.7146V134.569C962.84 135.473 965.038 136.118 967.496 136.506C970.083 136.893 972.993 137.087 976.226 137.087C984.116 137.087 989.096 135.731 991.165 133.02C993.364 130.181 994.464 123.92 994.464 114.239Z" fill="#084040"/>
<path d="M1061.98 191.495H1032.88V66.4135H1058.49L1060.04 75.3202H1060.43C1063.92 71.7059 1068.06 68.9951 1072.85 67.188C1077.76 65.3808 1083.32 64.4772 1089.53 64.4772C1102.21 64.4772 1111.2 68.2852 1116.5 75.9011C1121.93 83.517 1124.65 96.2963 1124.65 114.239C1124.65 131.665 1121.22 144.315 1114.37 152.189C1107.64 160.063 1096.65 164 1081.38 164C1077.63 164 1074.08 163.742 1070.71 163.226C1067.48 162.839 1064.57 162.258 1061.98 161.483V191.495ZM1095.55 114.239C1095.55 104.558 1094.51 98.2325 1092.44 95.2636C1090.37 92.1656 1085.91 90.6166 1079.06 90.6166C1075.69 90.6166 1072.52 90.8748 1069.55 91.3911C1066.7 91.9074 1064.18 92.6819 1061.98 93.7146V134.569C1063.92 135.473 1066.12 136.118 1068.58 136.506C1071.17 136.893 1074.08 137.087 1077.31 137.087C1085.2 137.087 1090.18 135.731 1092.25 133.02C1094.45 130.181 1095.55 123.92 1095.55 114.239Z" fill="#084040"/>
<path d="M1157.25 164C1147.42 164 1140.17 161.548 1135.52 156.643C1130.99 151.738 1128.73 143.993 1128.73 133.408C1128.73 122.565 1131.44 114.949 1136.87 110.56C1142.44 106.171 1151.94 103.977 1165.39 103.977C1168.5 103.977 1171.67 104.17 1174.9 104.558C1178.26 104.816 1181.17 105.203 1183.63 105.719V98.7488C1183.63 95.6508 1182.27 93.3919 1179.56 91.972C1176.97 90.423 1172.96 89.6485 1167.53 89.6485C1161.32 89.6485 1155.76 89.8421 1150.84 90.2293C1146.06 90.4875 1141.66 91.0038 1137.65 91.7784V67.9625C1142.44 66.8007 1148 65.9617 1154.34 65.4453C1160.67 64.7999 1168.05 64.4772 1176.45 64.4772C1188.35 64.4772 1197.34 67.1234 1203.42 72.4158C1209.63 77.7083 1212.73 85.5178 1212.73 95.8445V162.064H1185.57L1184.6 153.932H1184.02C1180.01 157.03 1175.61 159.483 1170.83 161.29C1166.04 163.097 1161.51 164 1157.25 164ZM1169.27 123.146C1164.1 123.146 1160.61 123.726 1158.8 124.888C1156.99 125.921 1156.08 128.18 1156.08 131.665C1156.08 134.892 1156.79 137.151 1158.22 138.442C1159.77 139.604 1162.42 140.185 1166.17 140.185C1169.02 140.185 1171.99 139.797 1175.09 139.023C1178.2 138.248 1181.04 137.28 1183.63 136.118V124.307C1182.08 123.92 1180.14 123.662 1177.81 123.533C1175.48 123.275 1172.64 123.146 1169.27 123.146Z" fill="#084040"/>
<path d="M225.59 113.191L112.399 224.799H0V0H225.59V113.191ZM56.2002 168.599H112.4V113.19H169.392V56.1992H56.2002V168.599Z" fill="#B6EA25"/>
<circle cx="205.407" cy="204.614" r="20.1844" fill="#B6EA25"/>
</svg>
